# xmcd
#
# Track frame offsets: 
#        150
#        12457
#        30967
#        43930
#        54087
#        75437
#        88577
#        96920
#        107307
#        113972
#        129105
#        139085
#        154855
#        165542
#        175137
#        188027
#        199730
#        208310
#        223577
#        235205
#        246072
#
# Disc length: 3485 seconds
#
# Revision: 5
# Processed by: cddbd v1.5.2PL0 Copyright (c) Steve Scherf et al.
# Submitted via: ExactAudioCopy v1.0b1
#
DISCID=0f0d9b15
DTITLE=Various Artists / Sesame Street: Songs From The Street (Disc 2)
DYEAR=2003
DGENRE=Soundtrack
TTITLE0=Pointer Sisters / Pinball Number Count
TTITLE1=Big Bird Oscar The Grouch Mr. Hooper And Everybody / I've Got 
TTITLE1=Two
TTITLE2=Oscar The Grouch / I Love Trash
TTITLE3=Johnny Cash And Oscar The Grouch / Nasty Dan
TTITLE4=Madeline Kahn And Grover / Sing After Me
TTITLE5=Captain Vegetable With Eddie And Andy / Captain Vegetable
TTITLE6=Ladysmith Black Mambazo And Kermit The Frog / African Alphabet
TTITLE7=B.B. King With Bert Benny Rabbit Big Bird And Baby Bear / B.B.
TTITLE7= King
TTITLE8=Cookie Monster / C Is For Cookie
TTITLE9=Los Lobos / Kiko And The Lavender Moon (Elmo And The Lavender 
TTITLE9=Moon)
TTITLE10=Bobby McFerrin With The Birds / Sweet In The Mornin' (Tweet I
TTITLE10=n The Mornin')
TTITLE11=Ziggy Marley And The Melody Makers With Prairie Dawn And Big 
TTITLE11=Bird / Small People
TTITLE12=Ernie With Big Bird And The Cast / Imagination
TTITLE13=Diane Schuur With Elmo / From Your Head
TTITLE14=Cast / What's The Name Of That Song
TTITLE15=Count With Ftatateeta And The Bats / The Batty Bat
TTITLE16=Mah Na Mah Na / Mah Na Mah Na
TTITLE17=Tony Bennett With Lexine / Little Things
TTITLE18=Kids Hoots The Owl Prairie Dawn / One Small Voice
TTITLE19=Aaron Neville And Ernie / I Don't Want To Live On The Moon
TTITLE20=Kermit The Frog / This Frog
EXTD=YEAR: 2003
EXTT0=
EXTT1=
EXTT2=
EXTT3=
EXTT4=
EXTT5=
EXTT6=
EXTT7=
EXTT8=
EXTT9=
EXTT10=
EXTT11=
EXTT12=
EXTT13=
EXTT14=
EXTT15=
EXTT16=
EXTT17=
EXTT18=
EXTT19=
EXTT20=
PLAYORDER=
.
